<?xml version="1.0" standalone="no"?><svg xmlns="http://www.w3.org/2000/svg" viewBox="0 0 1440 320"><path fill="#ffffff" fill-opacity="1" d="M0,128L34.3,144C68.6,160,137,192,206,176C274.3,160,343,96,411,80C480,64,549,96,617,138.7C685.7,181,754,235,823,224C891.4,213,960,139,1029,101.3C1097.1,64,1166,64,1234,58.7C1302.9,53,1371,43,1406,37.3L1440,32L1440,320L1405.7,320C1371.4,320,1303,320,1234,320C1165.7,320,1097,320,1029,320C960,320,891,320,823,320C754.3,320,686,320,617,320C548.6,320,480,320,411,320C342.9,320,274,320,206,320C137.1,320,69,320,34,320L0,320Z"></path></svg>